HIERARCHY
ROOT root
{
	OFFSET 0.000000 0.000000 0.000000
	CHANNELS 6 Xposition Yposition Zposition Zrotation Yrotation Xrotation
	JOINT lhip
	{
		OFFSET 0.058581 -0.082280 -0.017664
		CHANNELS 3 Zrotation Yrotation Xrotation
		JOINT lknee
		{
			OFFSET 0.043451 -0.386469 0.008037
			CHANNELS 3 Zrotation Yrotation Xrotation
			JOINT lankle
			{
				OFFSET -0.014790 -0.426874 -0.037428
				CHANNELS 3 Zrotation Yrotation Xrotation
				JOINT ltoe
				{
					OFFSET 0.041054 -0.060286 0.122042
					CHANNELS 3 Zrotation Yrotation Xrotation
					End Site
					{
						OFFSET 0.000000 0.000000 0.000000
					}
				}
			}
		}
	}
	JOINT rhip
	{
		OFFSET -0.060310 -0.090513 -0.013543
		CHANNELS 3 Zrotation Yrotation Xrotation
		JOINT rknee
		{
			OFFSET -0.043257 -0.383688 -0.004843
			CHANNELS 3 Zrotation Yrotation Xrotation
			JOINT rankle
			{
				OFFSET 0.019056 -0.420046 -0.034562
				CHANNELS 3 Zrotation Yrotation Xrotation
				JOINT rtoe
				{
					OFFSET -0.034840 -0.062106 0.130323
					CHANNELS 3 Zrotation Yrotation Xrotation
					End Site
					{
						OFFSET 0.000000 0.000000 0.000000
					}
				}
			}
		}
	}
	JOINT lowerback
	{
		OFFSET 0.004439 0.124404 -0.038385
		CHANNELS 3 Zrotation Yrotation Xrotation
		JOINT upperback
		{
			OFFSET 0.004488 0.137956 0.026820
			CHANNELS 3 Zrotation Yrotation Xrotation
			JOINT chest
			{
				OFFSET -0.002265 0.056032 0.002855
				CHANNELS 3 Zrotation Yrotation Xrotation
				JOINT lowerneck
				{
					OFFSET -0.013390 0.211636 -0.033468
					CHANNELS 3 Zrotation Yrotation Xrotation
					JOINT upperneck
					{
						OFFSET 0.010113 0.088937 0.050410
						CHANNELS 3 Zrotation Yrotation Xrotation
						End Site
						{
							OFFSET 0.000000 0.000000 0.000000
						}
					}
				}
				JOINT lclavicle
				{
					OFFSET 0.071702 0.114000 -0.018898
					CHANNELS 3 Zrotation Yrotation Xrotation
					JOINT lshoulder
					{
						OFFSET 0.122921 0.045205 -0.019046
						CHANNELS 3 Zrotation Yrotation Xrotation
						JOINT lelbow
						{
							OFFSET 0.255332 -0.015649 -0.022946
							CHANNELS 3 Zrotation Yrotation Xrotation
							JOINT lwrist
							{
								OFFSET 0.265709 0.012698 -0.007375
								CHANNELS 3 Zrotation Yrotation Xrotation
								End Site
								{
									OFFSET 0.000000 0.000000 0.000000
								}
							}
						}
					}
				}
				JOINT rclavicle
				{
					OFFSET -0.082954 0.112472 -0.023707
					CHANNELS 3 Zrotation Yrotation Xrotation
					JOINT rshoulder
					{
						OFFSET -0.113228 0.046853 -0.008472
						CHANNELS 3 Zrotation Yrotation Xrotation
						JOINT relbow
						{
							OFFSET -0.260127 -0.014369 -0.031269
							CHANNELS 3 Zrotation Yrotation Xrotation
							JOINT rwrist
							{
								OFFSET -0.269108 0.006794 -0.006027
								CHANNELS 3 Zrotation Yrotation Xrotation
								End Site
								{
									OFFSET 0.000000 0.000000 0.000000
								}
							}
						}
					}
				}
			}
		}
	}
}
MOTION
Frames: 16
Frame Time: 0.033333
2.293410 0.619661 0.998420 -103.109181 1.470180 85.622732 1.329791 4.838469 5.778123 -0.292657 -15.812348 0.471023 1.098379 16.176093 -8.890370 0.000000 -0.000000 0.000000 -1.149349 -3.037483 0.607221 -2.323041 11.737919 2.159677 2.893267 -13.867764 -4.799107 0.000000 -0.000000 0.000000 -3.157981 -0.566359 -0.940360 2.736633 -9.377692 4.223374 2.207394 -1.345952 -10.572660 -0.088230 -8.412294 0.702457 10.542940 5.323155 19.043160 -16.561091 -36.307263 4.856203 -1.746631 -20.750014 -7.026151 7.314179 -17.113716 0.238393 -1.903889 -3.817938 7.505959 9.422820 36.947859 0.675221 0.472453 31.609221 -15.131611 0.563350 14.103882 0.189990 -2.756567 3.358087 21.400352 
2.294554 0.618450 0.998637 -103.742213 1.495572 85.373279 1.109935 4.186675 6.451688 0.041993 -14.698827 -0.254462 0.720808 15.804103 -8.499734 0.000000 -0.000000 0.000000 -1.384784 -3.053350 0.643742 -2.206710 11.517282 2.190613 3.931667 -13.360104 -4.753540 0.000000 -0.000000 0.000000 -4.259296 -0.305744 -1.358693 3.258179 -8.980945 2.980052 2.692193 0.447172 -9.508358 -0.698231 -8.306795 1.193121 11.181258 2.532266 17.966235 -11.413287 -34.594000 -1.253783 -4.351289 -29.054259 -6.265374 -3.226170 -8.478624 0.192766 1.646060 -6.497179 9.773045 10.309538 34.634808 0.445816 0.964469 32.979402 -14.634442 0.322093 12.293522 0.091794 -0.659135 5.454520 20.716166 
2.295135 0.617825 0.997956 -104.529592 1.619764 85.131904 1.150424 4.183709 7.505637 0.419171 -14.383014 -1.676977 0.824175 15.942793 -8.047328 0.000000 -0.000000 0.000000 -1.357177 -2.988652 0.723006 -2.124501 11.788591 2.158687 3.774725 -13.115798 -4.699338 0.000000 -0.000000 0.000000 -4.161426 -0.243564 -1.483406 3.222582 -8.650596 3.142564 2.597787 0.400482 -10.026601 -0.744277 -8.301630 -0.259530 10.624244 2.121305 18.017815 -11.841940 -34.806849 -1.042586 -5.312012 -29.125391 -5.754923 -1.872592 -7.966065 0.270702 0.725395 -6.602289 9.330492 11.017049 34.817183 0.538588 2.236082 33.327596 -13.729175 -1.200190 11.972542 0.506638 -0.053337 4.840358 20.190562 
2.295424 0.616964 0.997642 -105.300687 1.775258 84.913698 1.220365 4.471786 7.998688 0.558248 -14.124394 -2.080153 0.655509 15.816955 -7.867293 0.000000 -0.000000 0.000000 -1.345564 -2.809359 0.858026 -1.996959 11.872317 2.037642 3.756436 -12.798509 -4.599633 0.000000 -0.000000 0.000000 -3.893461 -0.366865 -1.539810 2.951225 -8.401134 3.216520 2.355430 0.559093 -10.651945 -0.871027 -8.390579 -2.238090 10.243963 1.757842 18.182133 -12.469039 -35.167733 -0.723524 -6.062961 -29.140993 -5.402678 -0.692546 -7.775484 0.243832 0.243944 -6.900223 9.608413 12.102417 35.495064 1.596808 1.974856 33.161014 -14.238202 -0.709325 11.918400 -0.418030 0.467069 5.422285 21.334783 
2.295678 0.616604 0.997484 -105.574463 1.951582 84.897345 1.310378 4.524933 8.084465 0.644694 -13.983551 -2.248952 0.483066 15.721823 -7.630395 0.000000 -0.000000 0.000000 -1.120456 -2.659565 0.948595 -2.142222 12.023284 1.702114 3.958138 -12.872781 -4.237827 0.000000 -0.000000 0.000000 -4.230347 0.077985 -0.530009 3.332059 -7.309731 1.326465 2.800456 -0.416745 -10.480179 -0.994519 -8.799203 -3.544058 9.766621 1.398128 18.197588 -12.473947 -35.276648 -0.750014 -7.896975 -30.077114 -4.534753 0.372578 -7.512032 0.204200 -0.740037 -6.718137 8.922445 11.524463 34.736440 0.843264 3.612149 33.492666 -13.088839 -0.945209 12.383948 0.227062 0.775408 4.857789 20.862868 
2.296407 0.616092 0.997601 -105.835600 2.034605 85.024912 1.299725 4.506760 7.877703 0.674617 -13.506788 -2.210353 0.467916 15.564233 -7.490665 0.000000 -0.000000 0.000000 -1.036155 -2.632398 0.651674 -2.140552 12.047140 1.743029 3.988814 -12.689488 -3.977627 0.000000 -0.000000 0.000000 -4.063392 -0.306566 -0.443961 3.067757 -7.634653 1.171845 2.462824 -0.118586 -10.982601 -0.772813 -8.496557 -5.648358 9.312509 0.948198 18.273394 -12.190543 -34.992073 -1.206679 -8.794336 -30.573325 -3.955284 0.934470 -7.294078 0.614591 -1.203844 -6.533000 9.499649 12.083310 34.889762 1.084265 4.497284 34.272416 -12.529593 -1.336587 12.283208 -0.327350 1.049538 4.417197 20.723193 
2.297100 0.615285 0.997861 -106.095394 2.177100 85.181744 1.308340 4.511786 7.579151 0.700047 -13.229408 -2.129888 0.260636 15.566484 -7.290890 0.000000 -0.000000 0.000000 -0.899870 -2.516618 0.425270 -2.105408 12.299234 1.565960 3.944067 -12.702643 -3.640483 0.000000 -0.000000 0.000000 -4.323432 0.115252 0.229124 3.216431 -6.960571 -0.218062 2.763368 -1.061646 -10.903220 -1.130917 -8.840524 -7.577402 8.969436 0.753116 17.836587 -12.743476 -35.456606 -0.811306 -9.566657 -30.745807 -3.528770 1.720977 -7.185190 0.571010 -0.989435 -6.728320 9.095385 12.056437 34.702094 0.792230 5.167075 34.220967 -12.165509 -1.014927 12.832189 -0.338264 0.730269 4.601236 20.814430 
2.297856 0.614529 0.998231 -106.489008 2.311710 85.064773 1.316137 4.654230 7.650937 0.827402 -13.137494 -2.192371 0.071388 15.640547 -7.148637 0.000000 -0.000000 0.000000 -0.741071 -2.375740 0.474713 -2.113217 12.569046 1.357663 3.896272 -12.738952 -3.455682 0.000000 -0.000000 0.000000 -4.463152 0.196033 0.790214 3.204069 -6.737906 -0.598712 2.900546 -1.408575 -11.061527 -1.039994 -8.634128 -9.729841 8.445279 0.703905 17.291542 -12.797598 -35.727687 -0.648676 -10.016350 -30.498444 -3.729832 2.586737 -7.148863 0.646312 -1.623576 -6.502158 9.318468 12.419648 34.957206 1.142336 5.205220 34.191815 -12.498234 -1.186890 12.856427 -0.623981 1.030973 4.408520 20.852653 
2.298458 0.613777 0.998670 -106.998184 2.416441 85.202014 1.312767 4.741128 7.244099 0.752213 -12.626750 -1.811320 -0.257129 15.570742 -7.078808 0.000000 -0.000000 0.000000 -0.561571 -2.205447 0.117119 -2.236916 12.662102 1.389874 4.000718 -12.527160 -3.246589 0.000000 -0.000000 0.000000 -4.646176 0.275722 1.146429 3.300388 -6.487577 -1.169059 3.088721 -1.722494 -11.201273 -1.218793 -8.404049 -10.892226 8.108202 0.509644 15.949952 -12.747832 -35.535432 -0.919819 -10.749243 -30.490660 -3.399195 3.040049 -6.816135 0.475590 -2.308597 -6.528126 9.856046 12.451135 34.759702 0.921464 6.003099 34.355703 -11.979065 -1.525355 13.033723 -0.823348 0.953474 4.153598 20.962798 
2.299452 0.613103 0.998909 -107.650638 2.517666 85.261574 1.216568 4.898928 7.307289 1.009029 -12.424756 -2.276082 -0.198903 15.803110 -6.936671 0.000000 -0.000000 0.000000 -0.343969 -1.992501 -0.235754 -2.343122 13.157827 1.467363 4.045608 -12.481769 -3.058472 0.000000 -0.000000 0.000000 -4.874099 0.292502 1.763430 3.341797 -6.093966 -1.896153 3.249245 -2.071451 -11.335086 -1.188571 -8.450841 -12.997562 7.677232 0.573158 15.714787 -13.305326 -35.700287 -0.615549 -11.160614 -30.015143 -3.322443 4.290824 -6.778190 0.653274 -3.403240 -6.017198 10.722978 12.894837 34.794605 1.215196 6.164858 34.124836 -11.762655 -1.554760 13.162777 -0.794794 1.438746 4.069214 21.406505 
2.300421 0.612485 0.999341 -108.220408 2.620090 85.350693 1.264499 5.047691 7.076487 0.948105 -12.061579 -2.161420 -0.442129 15.872703 -6.895709 0.000000 -0.000000 0.000000 -0.165915 -1.844753 -0.620358 -2.355813 13.415428 1.556951 3.998075 -12.379759 -2.878987 0.000000 -0.000000 0.000000 -5.021304 0.408792 2.275848 3.319619 -5.797777 -2.362575 3.370514 -2.531842 -11.681422 -0.745431 -8.327149 -14.544684 7.190931 0.737999 15.829704 -13.680023 -35.683309 -0.521293 -11.649920 -29.935224 -3.041429 5.191002 -6.804542 0.713573 -3.770398 -5.814682 11.421779 13.459124 34.788475 1.389032 6.664144 34.235970 -11.151224 -1.765711 13.376728 -0.658498 1.201635 3.764850 21.324620 
2.300702 0.611713 0.999500 -108.666650 2.738209 85.398689 1.300262 5.107924 7.019247 0.982028 -11.772555 -2.295626 -0.825711 15.882419 -6.569212 0.000000 -0.000000 0.000000 -0.051528 -1.788736 -0.751420 -2.350797 13.543548 1.371947 4.160933 -12.246067 -2.512885 0.000000 -0.000000 0.000000 -5.310289 0.534866 2.681444 3.574207 -5.482581 -3.129476 3.580017 -2.832433 -11.402293 -1.145308 -8.396672 -15.446477 7.066620 0.675322 14.912398 -13.196652 -35.701475 -0.971801 -11.825154 -31.080985 -3.183773 3.772896 -5.523039 1.499812 -3.178984 -5.964059 11.441515 13.409184 34.523450 1.390497 6.818477 34.889849 -11.460105 -1.085184 13.159142 -0.440827 0.733569 3.987121 21.562100 
2.301047 0.611133 0.999442 -109.171463 2.788992 85.329083 1.188926 5.229073 7.043423 1.104452 -11.594455 -2.374580 -0.961165 16.052613 -6.388924 0.000000 -0.000000 0.000000 0.033655 -1.732251 -0.643264 -2.479293 13.910441 0.916124 4.348512 -12.199851 -2.061064 0.000000 -0.000000 0.000000 -5.426739 0.682010 2.831910 3.598651 -5.317972 -3.534107 3.624005 -2.985971 -10.858654 -1.744350 -7.857179 -16.168703 7.115047 0.368331 14.008262 -13.720844 -36.483683 -0.700622 -11.176918 -31.038532 -3.459426 3.207411 -5.981906 1.982263 -2.437395 -6.069356 11.025094 13.407370 34.635750 1.397690 7.419245 35.186232 -11.615740 -0.914941 13.725342 -0.646371 -0.211463 4.221730 21.498760 
2.301306 0.610302 0.999647 -109.631069 2.765824 85.281235 0.891258 5.042394 7.068617 1.313294 -11.325494 -2.504718 -0.380021 16.397342 -6.418736 0.000000 -0.000000 0.000000 0.019875 -1.681294 -0.694460 -2.523700 14.192952 0.749261 4.458697 -12.095794 -1.683181 0.000000 -0.000000 0.000000 -5.765916 0.896093 3.453488 3.680755 -5.195317 -4.478981 3.774328 -3.278187 -10.838674 -1.917988 -7.882093 -16.490081 6.986515 0.672761 14.224909 -14.009057 -36.651045 -0.592858 -11.562218 -31.559927 -2.858381 2.966275 -5.944737 2.259065 -1.861695 -6.007604 10.375438 13.979870 34.597393 1.470767 7.910406 35.634962 -11.094602 -0.762954 13.722119 -0.869383 -0.246051 4.141468 21.301990 
2.301400 0.609076 0.999517 -109.995232 2.854681 85.279584 0.810660 5.075963 6.914517 1.344441 -11.285925 -2.400009 -0.455688 16.539626 -6.458365 0.000000 -0.000000 0.000000 0.151632 -1.495436 -0.795122 -2.655965 14.437484 0.644809 4.372275 -12.006270 -1.541258 0.000000 -0.000000 0.000000 -5.858986 0.876560 3.786968 3.839792 -5.113841 -5.056849 3.730298 -3.524154 -10.587027 -2.267516 -8.148826 -16.716612 7.145518 0.927774 14.230346 -13.993226 -36.963813 0.393509 -11.268605 -31.224255 -2.880728 3.421038 -6.481113 2.579104 -1.715581 -5.948754 9.350426 13.953849 34.644715 1.379033 8.456351 35.975758 -10.922038 -0.782031 13.912342 -0.524960 -0.250263 4.075064 21.083127 
2.301458 0.607679 0.999622 -110.578224 2.966199 85.318117 0.644586 5.191744 6.250798 1.333524 -10.873681 -1.270419 -0.562110 16.770435 -6.996168 0.000000 -0.000000 0.000000 0.157518 -1.566058 -0.911815 -2.514271 14.850364 0.402962 4.430788 -11.768631 -1.342541 0.000000 -0.000000 0.000000 -5.876040 1.128538 4.002319 3.879972 -4.939931 -5.418176 3.713722 -3.806674 -10.542012 -2.546433 -8.363458 -16.724534 7.114196 0.967470 14.477799 -13.894763 -36.679873 0.399669 -11.103188 -31.252408 -2.779121 2.947793 -6.679359 2.650523 -1.315916 -5.872892 8.729005 13.850632 34.188849 1.176518 8.603002 36.351975 -10.883978 -0.180668 13.843420 -0.688890 -0.709737 4.146014 21.302398 
